<svg width="547" height="417" viewBox="0 0 547 417" fill="none" xmlns="http://www.w3.org/2000/svg">
<g clip-path="url(#clip0_97_454)">
<path d="M274.222 184.316H445.156C453.391 184.316 460.067 177.641 460.067 169.405V43.4964H259.311V169.405C259.311 177.639 265.987 184.316 274.222 184.316Z" fill="white"/>
<path d="M444.635 184.854H274.743C265.937 184.854 258.773 177.689 258.773 168.883V42.9583H460.606V168.883C460.606 177.689 453.441 184.854 444.635 184.854ZM259.85 44.0357V168.884C259.85 177.097 266.531 183.778 274.743 183.778H444.635C452.847 183.778 459.528 177.097 459.528 168.884V44.0357H259.85Z" fill="#D3D6D6"/>
<path d="M263.35 29.9747L370.95 29.8082C371.391 29.8071 371.816 29.855 372.223 29.9373L455.773 29.8082C458.519 29.804 460.747 31.5101 460.75 33.618L460.768 44.8507L375.946 44.6279V44.8507L258.401 44.5416L258.385 33.7991C258.382 31.6912 260.604 29.9789 263.35 29.9747Z" fill="#272727"/>
<path d="M451.859 40.0614C451.237 40.0614 450.653 39.8209 450.215 39.3837C449.776 38.9465 449.533 38.3636 449.532 37.7422C449.531 36.4618 450.57 35.4178 451.852 35.4157H451.856C453.135 35.4157 454.178 36.4566 454.179 37.7359C454.18 38.3553 453.938 38.9382 453.499 39.3785C453.061 39.8188 452.478 40.0614 451.859 40.0614ZM451.853 35.9549L451.854 36.493C451.168 36.4941 450.609 37.0541 450.61 37.7411C450.611 38.0732 450.74 38.3865 450.976 38.6207C451.446 39.0902 452.265 39.0902 452.736 38.6176C452.972 38.3823 453.102 38.069 453.102 37.738C453.101 37.052 452.542 36.4941 451.856 36.4941L451.853 35.9549Z" fill="white"/>
<path d="M442.82 40.076C441.538 40.076 440.494 39.035 440.493 37.7567C440.493 36.4754 441.534 35.4323 442.812 35.4303H442.813C444.094 35.4303 445.139 36.4712 445.14 37.7505C445.141 39.0309 444.1 40.0739 442.82 40.076ZM442.814 36.5076C442.128 36.5087 441.57 37.0687 441.57 37.7557C441.571 38.4406 442.13 38.9986 442.817 38.9986C443.148 38.9986 443.463 38.8685 443.697 38.6322C443.932 38.3969 444.062 38.0836 444.062 37.7515C444.061 37.0666 443.501 36.5076 442.814 36.5076Z" fill="white"/>
<path d="M433.95 40.0905C432.669 40.0905 431.625 39.0496 431.624 37.7703C431.623 37.1509 431.863 36.5669 432.302 36.1277C432.74 35.6884 433.324 35.4459 433.943 35.4448H433.947C435.227 35.4448 436.27 36.4858 436.271 37.764C436.272 39.0433 435.231 40.0874 433.95 40.0905ZM433.944 35.983L433.945 36.5211C433.613 36.5211 433.3 36.6513 433.065 36.8876C432.83 37.1228 432.7 37.4361 432.701 37.7671C432.702 38.4542 433.261 39.0121 433.947 39.0121C434.634 39.0111 435.194 38.451 435.193 37.764C435.192 37.0791 434.633 36.5211 433.947 36.5211L433.944 35.983Z" fill="white"/>
<path opacity="0.81" d="M442.261 57.9373H271.272V168.462H442.261V57.9373Z" fill="#DDDDDD"/>
<g opacity="0.65">
<path d="M397.326 71.9077H367.382V101.852H397.326V71.9077Z" fill="white"/>
<g opacity="0.81">
<path d="M391.73 77.5027H372.977V96.2561H391.73V77.5027Z" fill="#DDDDDD"/>
</g>
<path d="M404.913 63.3522V81.553H423.113V63.3522H404.913ZM418.807 77.2466H409.218V67.6575H418.807V77.2466Z" fill="white"/>
<path d="M379.65 107.993V126.925H398.583V107.993H379.65ZM394.295 122.638H383.938V112.279H394.295V122.638Z" fill="white"/>
<path d="M407.077 88.5886V132.108H435.02V88.5886H407.077ZM431.364 126.415H410.732V94.2836H431.364V126.415Z" fill="white"/>
</g>
<mask id="mask0_97_454" style="mask-type:luminance" maskUnits="userSpaceOnUse" x="260" y="43" width="200" height="142">
<path d="M260.006 45.2702L459.529 43.6255L459.314 168.329C459.299 176.871 452.381 183.793 443.839 183.814L260.006 184.257V45.2702Z" fill="white"/>
</mask>
<g mask="url(#mask0_97_454)">
<path d="M338.448 143.708L388.927 124.77C403.081 119.461 418.097 124.596 422.466 136.242L444.164 189.758L310.408 192.298C303.492 173.866 316.047 152.113 338.448 143.708Z" fill="#09090B"/>
<path d="M369.004 87.1969C369.004 87.1969 368.499 39.9323 332.835 50.5457C331.872 50.8319 330.916 51.1369 329.964 51.4502C326.136 48.0537 320.483 47.1272 315.63 49.563C311.992 51.3888 309.601 54.7063 308.812 58.3995C306.96 57.6969 304.852 57.6563 302.873 58.4599C300.387 59.4696 298.68 61.5702 298.062 63.9831C291.896 67.5181 289.127 75.1419 291.875 81.9111C293.688 86.3777 297.489 89.4308 301.84 90.4925L305.232 103.668C306.293 107.789 310.494 110.27 314.616 109.21L366.627 95.8211L364.549 87.7507C365.816 87.6372 367.303 87.4946 369.004 87.1969Z" fill="#09090B"/>
<path d="M370.493 131.128L365.039 113.937C365.045 112.169 364.854 110.373 364.392 108.581L363.174 103.85L362.426 100.944L364.404 100.434C368.809 99.3009 371.46 94.8103 370.327 90.4051C369.193 85.9999 364.702 83.3486 360.298 84.4832L358.32 84.9922L358.131 84.2573C356.093 89.5328 359.585 93.7892 355.868 90.758C355.392 90.3697 355.165 89.1445 354.969 88.6022C354.407 87.0585 353.906 85.494 353.353 83.9482C352.155 80.5953 351.391 76.8532 349.348 73.8855C347.916 71.8067 345.795 70.2817 343.445 69.4584C342.546 69.9018 341.565 70.2141 340.515 70.3484C338.617 70.5899 336.778 70.2391 335.188 69.4407C334.643 69.5958 334.103 69.7696 333.565 69.9643C333.417 74.4351 330.057 78.2667 325.477 78.8507C322.701 79.2046 320.059 78.2865 318.124 76.5565C317.056 79.4805 314.816 81.9641 311.704 83.2278C309.407 84.1605 306.985 84.2813 304.745 83.741C304.829 84.1824 304.902 84.6227 305.015 85.0641L311.314 109.533L314.383 121.457C316.753 130.667 324.845 136.885 333.875 137.295L335.448 142.252C338.049 150.451 346.887 155.03 355.086 152.429L360.317 150.769C368.515 148.165 373.096 139.328 370.493 131.128Z" fill="#E8A396"/>
<path opacity="0.46" d="M347.984 129.573L338.887 131.914C327.589 134.823 316.073 128.021 313.165 116.724L314.383 121.455C317.093 131.983 327.279 138.598 337.796 137.098C340.145 142.565 346.303 145.465 352.094 143.627C358.259 141.671 361.671 135.087 359.714 128.922C359.633 128.667 359.533 128.423 359.436 128.177C364.137 123.083 366.249 115.793 364.393 108.581L363.175 103.85C366.083 115.149 359.281 126.665 347.984 129.573Z" fill="#DF6969"/>
<path d="M364.615 94.1191C364.533 94.1191 364.448 94.1004 364.371 94.0608L361.543 92.6243L363.684 88.3732C363.818 88.1057 364.141 88.0005 364.407 88.1337C364.673 88.268 364.779 88.5918 364.646 88.8572L362.989 92.1497L364.86 93.1001C365.125 93.2343 365.231 93.5591 365.096 93.8245C364.999 94.0119 364.811 94.1191 364.615 94.1191Z" fill="#DF6969"/>
<path opacity="0.57" d="M333.961 125.901C333.871 125.901 333.781 125.879 333.698 125.833C333.438 125.69 333.344 125.361 333.489 125.101C334.74 122.85 337.216 122.641 338.348 122.851C338.64 122.904 338.833 123.183 338.781 123.476C338.729 123.767 338.453 123.965 338.158 123.911C338.055 123.893 335.617 123.492 334.432 125.624C334.333 125.801 334.149 125.901 333.961 125.901Z" fill="#DF6969"/>
<path d="M342.998 99.7319C342.998 99.7319 339.44 103.582 335.215 105.917C330.99 108.251 337.305 114.489 343.887 111.305C350.47 108.121 346.356 97.575 342.998 99.7319Z" fill="white"/>
<path d="M340.839 83.0249C340.087 83.4131 339.078 83.3777 338.1 83.4017C337.116 83.4038 336.127 83.4308 335.268 83.485C334.408 83.5391 333.422 83.6359 332.446 83.7566C331.473 83.8555 330.471 84.0169 329.684 83.7244C328.925 83.4537 328.562 82.5658 329.36 81.3948C330.105 80.257 332.17 78.9413 335.016 78.756C337.859 78.5842 340.051 79.6335 340.914 80.6692C341.829 81.7331 341.565 82.6605 340.839 83.0249Z" fill="#09090B"/>
<path d="M310.069 89.7732C310.749 89.8544 311.503 89.5432 312.25 89.285C312.996 89.0092 313.752 88.75 314.417 88.5491C315.083 88.3471 315.857 88.1421 316.63 87.9578C317.394 87.758 318.199 87.5966 318.711 87.1542C319.208 86.7358 319.228 85.9603 318.29 85.2993C317.4 84.6487 315.461 84.2365 313.255 84.8985C311.055 85.571 309.695 86.9835 309.339 88.012C308.95 89.0748 309.415 89.7024 310.069 89.7732Z" fill="#09090B"/>
<path d="M325.237 90.8756L324.416 100.873C324.231 103.128 326.65 104.662 329.407 103.966C330.165 103.776 331.019 103.473 331.978 103.022" fill="#E8A396"/>
<path d="M328.074 104.674C326.923 104.674 325.858 104.321 325.066 103.651C324.209 102.925 323.789 101.923 323.879 100.829L324.699 90.8319C324.723 90.5352 324.993 90.3218 325.28 90.3385C325.577 90.3634 325.797 90.6226 325.773 90.9193L324.952 100.916C324.891 101.656 325.179 102.334 325.762 102.828C326.617 103.552 327.928 103.783 329.275 103.443C330.047 103.249 330.878 102.943 331.748 102.533C332.014 102.406 332.338 102.523 332.464 102.791C332.591 103.061 332.475 103.381 332.206 103.508C331.274 103.947 330.376 104.276 329.538 104.487C329.045 104.613 328.553 104.674 328.074 104.674Z" fill="#DF6969"/>
<path d="M334.167 94.2295C333.983 95.1829 334.608 96.1052 335.562 96.2884C336.515 96.4716 337.437 95.8471 337.62 94.8936C337.804 93.9401 337.179 93.0178 336.226 92.8346C335.272 92.6514 334.35 93.276 334.167 94.2295Z" fill="#09090B"/>
<path d="M315.239 99.8151C315.056 100.769 315.681 101.691 316.634 101.874C317.588 102.057 318.51 101.433 318.693 100.479C318.876 99.5257 318.252 98.6035 317.298 98.4203C316.344 98.236 315.423 98.8606 315.239 99.8151Z" fill="#09090B"/>
<path d="M315.907 103.111C315.763 103.111 315.618 103.052 315.512 102.939C315.31 102.721 315.322 102.38 315.539 102.178C317.584 100.278 319.743 100.955 319.833 100.985C320.116 101.078 320.271 101.383 320.179 101.665C320.086 101.946 319.781 102.099 319.501 102.009C319.42 101.983 317.831 101.518 316.274 102.967C316.169 103.063 316.038 103.111 315.907 103.111Z" fill="#DF6969"/>
<path d="M334.958 97.2846C334.814 97.2846 334.669 97.2263 334.563 97.1128C334.361 96.8953 334.373 96.5539 334.59 96.3519C336.424 94.6479 338.364 95.2569 338.446 95.285C338.728 95.3776 338.882 95.6826 338.788 95.9647C338.697 96.2468 338.394 96.4029 338.113 96.3092C338.056 96.2905 336.675 95.8814 335.324 97.1409C335.221 97.2367 335.089 97.2846 334.958 97.2846Z" fill="#DF6969"/>
<path d="M371.777 153.31C371.896 153.693 371.682 154.101 371.299 154.221C370.916 154.34 370.508 154.126 370.388 153.743C370.268 153.36 370.483 152.952 370.866 152.832C371.25 152.712 371.658 152.926 371.777 153.31Z" fill="#E0E0E0"/>
<path d="M351.307 159.69C351.426 160.073 351.212 160.481 350.829 160.6C350.446 160.72 350.038 160.506 349.918 160.123C349.798 159.74 350.013 159.332 350.396 159.212C350.779 159.092 351.187 159.307 351.307 159.69Z" fill="#E0E0E0"/>
<path d="M330.297 144.234L333.224 156.535L348.178 168.368C349.567 169.468 351.626 168.886 352.235 167.222L358.044 151.355L333.999 141.111C331.95 140.239 329.782 142.069 330.297 144.234Z" fill="#F7F7F7"/>
<path d="M371.204 125.85L358.044 151.356L373.831 159.209C375.327 159.953 377.133 159.177 377.623 157.582L383.79 137.537L373.359 125.589C372.75 124.89 371.629 125.026 371.204 125.85Z" fill="#F7F7F7"/>
<path d="M423.528 134.752L423.457 134.774L423.032 131.046L421.177 117.159C413.617 116.178 405.127 107.76 405.17 107.755L398.05 103.06C396.763 102.21 396.201 100.511 396.917 99.1459C397.742 97.5761 399.713 97.0942 401.155 98.0456C401.155 98.0456 405.232 100.746 407.918 102.526C409.038 103.268 410.52 102.228 410.154 100.936C409.621 99.0564 408.301 97.42 407.078 96.2302C407.013 96.1854 390.416 82.7126 390.416 82.7126C389.152 81.6852 388.96 79.8292 389.988 78.5666C391.275 77.5246 393.382 77.5277 394.668 78.5728L406.225 87.9693C406.742 88.3899 407.483 88.3899 408 87.9714L408.355 87.6841C408.956 87.198 409.076 86.3288 408.632 85.697L397.898 70.4181C397.012 69.1565 397.112 67.3692 398.279 66.3616C399.621 65.202 401.632 65.4779 402.625 66.8914L413.066 81.7539C413.611 82.5294 414.638 82.7928 415.489 82.3764C416.574 81.8445 417.023 80.5329 416.491 79.4472L409.346 64.8762C408.667 63.4917 409.045 61.7419 410.355 60.9279C411.861 59.9921 413.804 60.5771 414.565 62.1292L421.99 77.2706C422.484 78.2762 423.288 79.0964 424.285 79.6075C425.46 80.2092 426.798 79.1526 426.485 77.8702L424.684 70.4962C424.319 68.9983 425.063 67.3703 426.517 66.8571C428.189 66.2669 429.962 67.2558 430.372 68.9348L434.648 84.9329C439.339 98.6556 440.124 108.211 440.253 111.336L443.579 125.19L444.387 128.309L444.332 128.326L423.528 134.752Z" fill="#E8A396"/>
<path d="M419.231 105.53C418.863 105.53 418.507 105.343 418.305 105.005C415.464 100.248 409.707 101.184 409.651 101.192C409.057 101.29 408.506 100.9 408.405 100.315C408.304 99.7288 408.696 99.1708 409.282 99.0698C409.578 99.0178 416.56 97.8863 420.155 103.9C420.46 104.411 420.293 105.072 419.782 105.377C419.61 105.481 419.419 105.53 419.231 105.53Z" fill="#DF6969"/>
<path opacity="0.52" d="M416.857 127.49L407.267 123.657C405.348 125.524 404.439 128.308 405.073 131.072L423.931 213.371H434.676L416.857 127.49Z" fill="#434343"/>
<path d="M414.443 119.89C410.63 121.203 408.423 125.181 409.323 129.111L428.425 212.471C429.081 220.472 444.22 225.107 458.731 220.206C472.108 215.689 479.102 201.006 474.18 187.772L449.361 116.189C447.936 112.078 443.452 109.898 439.338 111.314L414.443 119.89Z" fill="#09090B"/>
</g>
<path d="M411.714 160.607C411.714 166.976 406.55 172.14 400.181 172.14C393.811 172.14 388.647 166.976 388.647 160.607C388.647 154.237 393.811 149.073 400.181 149.073C406.551 149.072 411.714 154.236 411.714 160.607Z" fill="#DDDDDD"/>
<path d="M406.724 158.597L404.326 159.236C404.281 159.247 404.25 159.288 404.25 159.335V158.068C404.25 157.622 403.888 157.261 403.443 157.261H396.209C395.764 157.261 395.403 157.622 395.403 158.068V163.393C395.403 163.839 395.764 164.2 396.209 164.2H403.443C403.888 164.2 404.25 163.839 404.25 163.393V162.126C404.25 162.172 404.281 162.213 404.326 162.225L406.724 162.864C406.788 162.882 406.852 162.833 406.852 162.766V158.694C406.852 158.628 406.788 158.579 406.724 158.597Z" fill="white"/>
<path d="M360.78 172.14C367.15 172.14 372.314 166.976 372.314 160.607C372.314 154.237 367.15 149.073 360.78 149.073C354.41 149.073 349.247 154.237 349.247 160.607C349.247 166.976 354.41 172.14 360.78 172.14Z" fill="#272727"/>
<path d="M367.828 161.231V160.466C367.828 157.655 365.54 155.366 362.728 155.366H359.268C356.043 155.366 353.42 157.99 353.42 161.214V161.496C353.147 161.773 352.975 162.133 352.975 162.529V162.872C352.975 162.89 352.98 162.908 352.981 162.926C352.944 163.005 352.923 163.092 352.923 163.183V164.18C352.923 164.549 353.26 164.851 353.672 164.851H357.817C358.229 164.851 358.565 164.549 358.565 164.18V163.234C358.596 163.116 358.617 162.997 358.617 162.871V162.528C358.617 161.948 358.258 161.445 357.732 161.172C357.754 160.342 358.432 159.674 359.268 159.674H362.728C363.164 159.674 363.519 160.029 363.519 160.465V161.383C363.174 161.672 362.956 162.077 362.956 162.529V162.872C362.956 162.89 362.961 162.908 362.962 162.926C362.924 163.005 362.904 163.092 362.904 163.183V164.18C362.904 164.549 363.241 164.851 363.652 164.851H367.797C368.209 164.851 368.545 164.549 368.545 164.18V163.234C368.577 163.116 368.598 162.997 368.598 162.871V162.528C368.599 161.992 368.292 161.515 367.828 161.231Z" fill="white"/>
<path d="M321.606 172.14C327.975 172.14 333.139 166.976 333.139 160.607C333.139 154.237 327.975 149.073 321.606 149.073C315.236 149.073 310.072 154.237 310.072 160.607C310.072 166.976 315.236 172.14 321.606 172.14Z" fill="#DDDDDD"/>
<path d="M321.606 163.077C323.02 163.077 324.178 161.919 324.178 160.505V156.718C324.178 155.303 323.02 154.146 321.606 154.146C320.191 154.146 319.034 155.303 319.034 156.718V160.505C319.035 161.919 320.192 163.077 321.606 163.077Z" fill="white"/>
<path d="M325.487 159.359C325.19 159.359 324.949 159.6 324.949 159.898V161.745C324.949 162.827 324.069 163.708 322.986 163.708H320.344C319.197 163.708 318.264 162.775 318.264 161.628V159.758C318.264 159.461 318.024 159.22 317.725 159.22C317.427 159.22 317.187 159.461 317.187 159.758V161.628C317.187 163.369 318.603 164.785 320.344 164.785H321.068V166.421C321.068 166.438 321.076 166.453 321.077 166.469H320.204C319.906 166.469 319.664 166.71 319.664 167.008C319.664 167.306 319.905 167.548 320.204 167.548H323.009C323.307 167.548 323.547 167.306 323.547 167.008C323.547 166.711 323.307 166.469 323.009 166.469H322.136C322.138 166.453 322.145 166.439 322.145 166.421V164.785H322.986C324.663 164.785 326.027 163.421 326.027 161.745V159.898C326.025 159.599 325.785 159.359 325.487 159.359Z" fill="white"/>
<path d="M163.458 416.235H22.4436C10.0481 416.235 0 406.187 0 393.791V85.9645C0 73.569 10.0481 63.5209 22.4436 63.5209H163.457C175.852 63.5209 185.9 73.569 185.9 85.9645V393.792C185.9 406.187 175.852 416.235 163.458 416.235Z" fill="#272727"/>
<path d="M160.473 411.142H25.4279C14.1484 411.142 5.00378 401.997 5.00378 390.717V87.5144C5.00378 76.2348 14.1473 67.0902 25.4279 67.0902H160.473C171.753 67.0902 180.898 76.2348 180.898 87.5144V390.717C180.898 401.998 171.753 411.142 160.473 411.142Z" fill="#434343"/>
<path opacity="0.89" d="M93.1739 83.1539C92.3317 83.1539 91.5406 82.826 90.9442 82.2306C90.3477 81.6341 90.0209 80.842 90.0209 79.9999C90.0209 79.1588 90.3477 78.3677 90.9442 77.7712C91.5385 77.1758 92.3297 76.8479 93.1707 76.8479H93.1739C94.0149 76.8479 94.806 77.1758 95.4025 77.7702C95.9989 78.3677 96.3268 79.1599 96.3258 80.0009C96.3247 80.843 95.9969 81.6341 95.4025 82.2296C95.0611 82.571 94.6593 82.8229 94.2085 82.979C93.8765 83.0956 93.5288 83.1539 93.1739 83.1539ZM93.1718 77.9263C92.618 77.9263 92.0975 78.1418 91.7061 78.5342C91.3137 78.9267 91.0972 79.4482 91.0982 80.0009C91.0982 80.5557 91.3137 81.0772 91.7061 81.4697C92.2651 82.0276 93.1228 82.216 93.8546 81.9631C94.1513 81.8611 94.4147 81.6945 94.6416 81.4686C95.033 81.0772 95.2484 80.5557 95.2495 80.002C95.2505 79.4482 95.034 78.9267 94.6416 78.5342C94.2491 78.1428 93.7276 77.9263 93.1739 77.9263H93.1718Z" fill="white"/>
<path opacity="0.89" d="M107.659 91.9717L77.5692 91.9696L77.4214 91.8488C76.6563 91.2284 76.2119 90.4217 76.1681 89.5796C76.1317 88.852 76.394 88.1712 76.9072 87.6611C77.3798 87.1865 78.0116 86.9242 78.682 86.9242C78.6851 86.9242 78.6872 86.9242 78.6903 86.9242L107.657 86.9252C108.332 86.9252 108.966 87.1875 109.442 87.6643C109.916 88.1369 110.18 88.7708 110.182 89.4463C110.18 90.5227 109.497 91.4803 108.481 91.8332C108.216 91.9248 107.941 91.9717 107.659 91.9717ZM77.9606 90.8932L107.657 90.8943C107.819 90.8943 107.977 90.8683 108.128 90.8152C108.711 90.6132 109.103 90.0636 109.104 89.4474C109.104 89.0612 108.952 88.6989 108.681 88.4283C108.408 88.1545 108.045 88.0036 107.658 88.0036L78.6893 88.0026C78.6872 88.0026 78.6851 88.0026 78.6851 88.0026C78.3 88.0026 77.9398 88.1525 77.6692 88.4241C77.3746 88.7177 77.2247 89.108 77.2455 89.5255C77.2684 90.0095 77.5224 90.4894 77.9606 90.8932Z" fill="white"/>
<path d="M93.0688 398.747C84.5082 398.747 77.5443 391.782 77.5443 383.223C77.5443 374.662 84.5082 367.697 93.0688 367.697C101.629 367.697 108.594 374.662 108.594 383.223C108.593 391.782 101.629 398.747 93.0688 398.747ZM93.0688 368.776C85.1025 368.776 78.6217 375.257 78.6217 383.224C78.6217 391.19 85.1025 397.671 93.0688 397.671C101.036 397.671 107.517 391.19 107.517 383.224C107.516 375.256 101.035 368.776 93.0688 368.776Z" fill="white"/>
<path d="M170.958 104.146H14.9436V354.015H170.958V104.146Z" fill="white"/>
<path d="M170.958 104.152H14.9436V114.933H170.958V104.152Z" fill="#787878"/>
<path opacity="0.81" d="M152.529 126.661H30.1287V336.525H152.529V126.661Z" fill="#DDDDDD"/>
<mask id="mask1_97_454" style="mask-type:luminance" maskUnits="userSpaceOnUse" x="14" y="104" width="157" height="251">
<path d="M170.958 104.146H14.9436V354.015H170.958V104.146Z" fill="white"/>
</mask>
<g mask="url(#mask1_97_454)">
<path d="M111.091 354.776L104.378 239.109L101.689 237.829L61.7574 241.496L59.6412 242.783L66.9829 354.776H111.091Z" fill="#272727"/>
<path d="M168.118 354.776L147.391 254.887L104.294 237.659L104.379 239.109L111.092 354.776H168.118Z" fill="#8D8D8E"/>
<path d="M66.9829 354.776L59.6413 242.783L59.1468 235.25L12.9918 267.89L6.90027 354.776H66.9829Z" fill="#8D8D8E"/>
<path d="M110.736 150.714C109.949 143.088 103.129 137.544 95.5044 138.331C94.8611 138.397 94.2387 138.521 93.6276 138.67C85.8956 134.274 80.0705 129.016 68.7878 132.797C64.4388 134.254 60.7456 137.375 58.9427 141.593C58.6918 142.18 58.492 142.796 58.3223 143.424C53.6194 144.825 50.152 146.914 47.6559 149.445C40.5994 152.793 37.3517 161.541 41.2052 168.867L42.6729 172.08C44.4331 181.572 48.8852 189.595 48.8852 189.595C49.4317 189.417 51.3991 191.18 51.3991 191.18C51.3991 191.18 58.1735 195.131 59.5152 191.942C59.7442 191.397 60.2407 185.425 60.1637 184.874C59.9451 183.309 59.663 181.754 59.435 180.192C58.9396 176.804 57.8987 173.28 58.2953 169.836C58.5742 167.41 59.7005 165.145 61.342 163.381C64.6366 164.508 69.5946 165.166 76.8811 164.149C78.634 164.982 80.6274 165.365 82.6999 165.15C84.7901 164.935 86.6742 164.136 88.2294 162.948C90.9795 165.161 94.5665 166.335 98.3545 165.943C99.0727 165.87 99.7619 165.722 100.438 165.544C101.334 166.589 102.154 167.816 102.487 168.673C103.431 171.099 107.759 165.865 108.924 159.1C110.351 156.655 111.05 153.752 110.736 150.714Z" fill="#09090B"/>
<path opacity="0.46" d="M103.954 163.005V163.003L106.783 178.531L103.954 163.005Z" fill="#DF6969"/>
<path d="M111.884 206.522L111.629 205.122V205.12L106.783 178.531L106.466 176.787L104.134 163.989C102.426 165.028 100.475 165.728 98.3535 165.947C94.5656 166.338 90.9775 165.164 88.2284 162.951C86.6732 164.14 84.7892 164.938 82.699 165.153C78.1022 165.628 73.8833 163.19 71.8555 159.338C68.5672 159.779 65.7682 160.319 64.5493 160.94C61.2235 162.632 58.7315 166.045 58.2953 169.839C57.8987 173.283 58.9396 176.806 59.4351 180.195C59.6631 181.757 59.9452 183.312 60.1638 184.877C60.2408 185.428 59.8369 189.917 59.6069 190.461C57.9934 194.295 55.8387 190.601 54.853 188.489C54.5094 187.752 53.7017 187.353 52.9012 187.499C47.7361 188.44 44.8683 193.286 46.5286 198.268L46.9242 199.454C48.4294 203.969 53.0261 206.69 57.7082 205.837L58.2485 208.8L59.3394 240.324C59.6163 248.324 66.3251 254.584 74.3247 254.307L84.5497 253.953C92.5483 253.676 98.8085 246.968 98.5316 238.968L98.1724 228.6C107.635 225.898 113.684 216.405 111.884 206.522Z" fill="#E8A396"/>
<path opacity="0.46" d="M111.884 206.522L111.629 205.122C113.453 215.143 106.81 224.747 96.788 226.573L83.9773 228.907C73.9552 230.733 64.3505 224.09 62.5236 214.068L60.9175 205.25L57.7083 205.835L59.5705 216.055C60.9653 223.713 66.6957 229.472 73.7647 231.308C73.6668 232.084 73.671 232.874 73.8167 233.669C74.7369 238.685 80.4297 241.844 86.5317 240.725C92.6336 239.605 96.8338 234.631 95.9126 229.614C95.8824 229.449 95.8335 229.292 95.7929 229.13L96.3113 229.035C106.828 227.118 113.8 217.039 111.884 206.522Z" fill="#DF6969"/>
<path d="M94.3668 216.894C94.2533 216.894 94.1388 216.858 94.041 216.785C93.8047 216.604 93.7589 216.268 93.9379 216.031C94.7072 215.015 96.8754 213.334 99.5787 214.233C99.8608 214.328 100.013 214.633 99.9191 214.915C99.8255 215.197 99.5236 215.35 99.2383 215.257C96.6037 214.376 94.8685 216.589 94.7956 216.684C94.6895 216.821 94.5292 216.894 94.3668 216.894Z" fill="#DF6969"/>
<path d="M71.3008 178.313C72.2418 178.428 73.2921 178.006 74.3299 177.657C75.3677 177.283 76.4201 176.935 77.3444 176.663C78.2709 176.39 79.3451 176.114 80.4204 175.867C81.4821 175.598 82.5991 175.383 83.3163 174.78C84.0126 174.21 84.0532 173.152 82.7635 172.244C81.5404 171.351 78.8611 170.778 75.7924 171.672C72.7331 172.579 70.8271 174.501 70.3171 175.903C69.7633 177.354 70.3972 178.213 71.3008 178.313Z" fill="#09090B"/>
<path d="M103.451 171.815C102.818 172.282 101.889 172.406 100.996 172.576C100.095 172.729 99.1926 172.906 98.415 173.087C97.6353 173.269 96.7463 173.507 95.8688 173.766C94.9924 174.006 94.0982 174.304 93.3352 174.162C92.6003 174.034 92.1402 173.286 92.7013 172.106C93.2207 170.963 94.9216 169.457 97.501 168.852C100.08 168.261 102.239 168.872 103.179 169.676C104.171 170.495 104.063 171.375 103.451 171.815Z" fill="#09090B"/>
<path d="M53.3394 200.431C53.1687 200.431 53.0022 200.35 52.8971 200.2C52.7263 199.956 52.7867 199.62 53.0313 199.45L55.4338 197.778L52.5202 193.707C52.3474 193.466 52.4026 193.128 52.6451 192.956C52.8877 192.782 53.2239 192.838 53.3967 193.081L56.9463 198.04L53.6475 200.335C53.5528 200.399 53.4456 200.431 53.3394 200.431Z" fill="#DF6969"/>
<path d="M98.5056 182.532C98.186 183.533 98.7377 184.603 99.7391 184.924C100.74 185.244 101.812 184.692 102.131 183.69C102.451 182.689 101.899 181.619 100.898 181.298C99.8962 180.978 98.8251 181.53 98.5056 182.532Z" fill="#09090B"/>
<path d="M79.5314 186.28C79.2118 187.282 79.7635 188.352 80.7649 188.672C81.7663 188.992 82.8363 188.44 83.1569 187.439C83.4765 186.437 82.9248 185.367 81.9234 185.047C80.9221 184.726 79.852 185.279 79.5314 186.28Z" fill="#09090B"/>
<path d="M99.0187 186.091C98.9469 186.091 98.874 186.072 98.8085 186.031C98.618 185.915 98.5586 185.666 98.6752 185.476C98.6877 185.457 99.9191 183.515 102.555 184.753C102.756 184.848 102.843 185.088 102.748 185.29C102.654 185.492 102.414 185.58 102.211 185.484C100.221 184.548 99.3987 185.843 99.3654 185.897C99.2883 186.022 99.1551 186.091 99.0187 186.091Z" fill="#DF6969"/>
<path d="M80.0134 189.933C79.9405 189.933 79.8666 189.913 79.801 189.871C79.6126 189.754 79.5533 189.508 79.6699 189.319C79.6834 189.298 80.9513 187.292 83.6827 188.573C83.8846 188.668 83.971 188.909 83.8763 189.11C83.7816 189.312 83.5432 189.401 83.3381 189.304C81.2833 188.338 80.3933 189.685 80.3569 189.742C80.2799 189.865 80.1487 189.933 80.0134 189.933Z" fill="#DF6969"/>
<path d="M90.6538 197.264C90.4727 197.264 90.3072 197.14 90.2624 196.956C90.2094 196.739 90.3426 196.521 90.5591 196.468L94.1618 195.587C96.5414 195.005 97.9404 192.332 97.2794 189.63L97.1878 189.257C96.913 188.133 95.8981 187.41 94.9185 187.651C93.8131 187.921 92.6587 187.694 91.6677 187.011C90.6913 186.337 89.9907 185.299 89.6951 184.087L88.3731 178.565C88.3211 178.347 88.4554 178.13 88.6719 178.078C88.8874 178.031 89.107 178.16 89.1591 178.376L90.481 183.896C90.7298 184.913 91.3148 185.785 92.1278 186.345C92.9251 186.895 93.8474 187.082 94.7281 186.865C96.1364 186.521 97.5927 187.507 97.9726 189.065L98.0642 189.437C98.8304 192.573 97.1659 195.684 94.3533 196.371L90.7506 197.252C90.7184 197.26 90.6861 197.264 90.6538 197.264Z" fill="#DF6969"/>
<path d="M81.7215 198.839C81.7215 198.839 86.1111 200.514 90.4071 201.021C94.703 201.528 92.263 207.21 85.7551 206.72C79.2472 206.23 78.1834 198.237 81.7215 198.839Z" fill="white"/>
<path d="M105.069 233.558L110.308 245.403C110.926 246.801 110.713 248.413 109.749 249.622L98.2213 264.081C97.4354 265.687 95.5472 265.881 94.501 264.466L83.4203 251.985L100.995 231.856C102.398 230.229 104.784 231.227 105.069 233.558Z" fill="white"/>
<path d="M57.0784 230.998L86.1141 252.621L69.4405 266.979C67.9436 268.375 65.3538 268.313 64.0006 266.846L48.8321 250.402C47.7287 249.206 47.4341 247.471 48.0805 245.978L54.297 231.616C54.7228 230.634 56.1696 230.312 57.0784 230.998Z" fill="white"/>
<path d="M155.15 263.333L155.068 263.358L154.574 259.023L152.418 242.871C143.624 241.729 133.749 231.938 133.798 231.933L125.518 226.472C124.021 225.484 123.367 223.507 124.2 221.919C125.159 220.093 127.452 219.533 129.13 220.639C129.13 220.639 133.872 223.78 136.995 225.85C138.297 226.714 140.022 225.505 139.596 224.002C138.976 221.815 137.442 219.911 136.019 218.528C135.944 218.476 116.639 202.806 116.639 202.806C115.17 201.611 114.947 199.452 116.141 197.983C117.639 196.772 120.088 196.775 121.584 197.991L135.027 208.921C135.628 209.41 136.489 209.41 137.091 208.923L137.503 208.587C138.201 208.021 138.342 207.011 137.826 206.275L125.341 188.505C124.31 187.037 124.427 184.958 125.784 183.786C127.346 182.438 129.684 182.758 130.84 184.402L142.986 201.69C143.619 202.592 144.814 202.899 145.803 202.414C147.066 201.795 147.589 200.269 146.969 199.007L138.658 182.059C137.868 180.449 138.308 178.414 139.832 177.468C141.583 176.38 143.843 177.06 144.729 178.865L153.365 196.476C153.938 197.646 154.875 198.599 156.035 199.194C157.402 199.894 158.958 198.665 158.593 197.174L156.499 188.596C156.074 186.854 156.939 184.96 158.631 184.363C160.575 183.677 162.637 184.827 163.114 186.779L168.089 205.388C173.546 221.349 174.459 232.463 174.609 236.097L178.477 252.211L179.416 255.838L179.353 255.858L155.15 263.333Z" fill="#E8A396"/>
<path d="M150.151 229.168C149.785 229.168 149.428 228.98 149.226 228.643C145.876 223.039 139.255 224.081 138.976 224.125C138.387 224.222 137.834 223.83 137.734 223.245C137.634 222.659 138.026 222.103 138.611 222.002C138.949 221.943 146.956 220.646 151.075 227.538C151.38 228.048 151.213 228.71 150.703 229.015C150.53 229.119 150.339 229.168 150.151 229.168Z" fill="#DF6969"/>
<path opacity="0.52" d="M147.391 254.887L136.237 250.428C134.006 252.6 132.948 255.837 133.685 259.053L155.619 354.776H168.117L147.391 254.887Z" fill="#272727"/>
<path d="M144.583 246.046C140.149 247.575 137.58 252.2 138.627 256.772L160.846 353.731C161.609 363.037 179.217 368.428 196.095 362.728C211.654 357.473 219.79 340.396 214.066 325.002L185.198 241.742C183.539 236.96 178.323 234.424 173.539 236.072L144.583 246.046Z" fill="#8D8D8E"/>
</g>
<path d="M134.544 341.386C140.913 341.386 146.077 336.222 146.077 329.852C146.077 323.482 140.913 318.318 134.544 318.318C128.174 318.318 123.01 323.482 123.01 329.852C123.01 336.222 128.174 341.386 134.544 341.386Z" fill="#DDDDDD"/>
<path d="M141.087 327.842L138.689 328.481C138.644 328.493 138.613 328.533 138.613 328.58V327.313C138.613 326.868 138.251 326.506 137.806 326.506H130.573C130.127 326.506 129.766 326.868 129.766 327.313V332.639C129.766 333.084 130.127 333.445 130.573 333.445H137.806C138.251 333.445 138.613 333.084 138.613 332.639V331.372C138.613 331.418 138.644 331.458 138.689 331.471L141.087 332.111C141.152 332.128 141.215 332.08 141.215 332.012V327.941C141.215 327.874 141.152 327.825 141.087 327.842Z" fill="white"/>
<path d="M95.1433 341.386C101.513 341.386 106.677 336.222 106.677 329.852C106.677 323.482 101.513 318.318 95.1433 318.318C88.7735 318.318 83.6097 323.482 83.6097 329.852C83.6097 336.222 88.7735 341.386 95.1433 341.386Z" fill="#272727"/>
<path d="M102.191 330.477V329.711C102.191 326.899 99.9034 324.611 97.0908 324.611H93.6307C90.4059 324.611 87.7828 327.235 87.7828 330.459V330.741C87.51 331.019 87.3383 331.378 87.3383 331.775V332.117C87.3383 332.136 87.3435 332.153 87.3445 332.171C87.3071 332.25 87.2863 332.338 87.2863 332.428V333.425C87.2863 333.794 87.6235 334.096 88.0347 334.096H92.1797C92.5919 334.096 92.9281 333.794 92.9281 333.425V332.479C92.9594 332.363 92.9802 332.242 92.9802 332.116V331.774C92.9802 331.194 92.621 330.69 92.0954 330.417C92.1172 329.588 92.7949 328.919 93.6307 328.919H97.0908C97.527 328.919 97.8819 329.274 97.8819 329.71V330.628C97.5374 330.917 97.3188 331.323 97.3188 331.775V332.117C97.3188 332.136 97.324 332.153 97.325 332.171C97.2876 332.25 97.2667 332.338 97.2667 332.428V333.425C97.2667 333.794 97.604 334.096 98.0152 334.096H102.16C102.572 334.096 102.909 333.794 102.909 333.425V332.479C102.94 332.363 102.961 332.242 102.961 332.116V331.774C102.961 331.237 102.655 330.761 102.191 330.477Z" fill="white"/>
<path d="M55.9688 341.385C62.3386 341.385 67.5024 336.222 67.5024 329.852C67.5024 323.482 62.3386 318.318 55.9688 318.318C49.599 318.318 44.4353 323.482 44.4353 329.852C44.4353 336.222 49.599 341.385 55.9688 341.385Z" fill="#DDDDDD"/>
<path d="M55.9688 332.322C57.3834 332.322 58.5409 331.165 58.5409 329.75V325.963C58.5409 324.548 57.3834 323.391 55.9688 323.391C54.5541 323.391 53.3966 324.548 53.3966 325.963V329.75C53.3976 331.165 54.5541 332.322 55.9688 332.322Z" fill="white"/>
<path d="M59.8504 328.604C59.5527 328.604 59.3123 328.844 59.3123 329.142V330.99C59.3123 332.071 58.4316 332.952 57.3491 332.952H54.7072C53.5601 332.952 52.6274 332.018 52.6274 330.872V329.003C52.6274 328.705 52.387 328.464 52.0882 328.464C51.7905 328.464 51.55 328.705 51.55 329.003V330.872C51.55 332.614 52.9657 334.029 54.7072 334.029H55.4306V335.666C55.4306 335.682 55.439 335.697 55.44 335.712H54.5667C54.269 335.712 54.0275 335.953 54.0275 336.251C54.0275 336.548 54.2679 336.79 54.5667 336.79H57.371C57.6687 336.79 57.9091 336.549 57.9091 336.251C57.9091 335.953 57.6687 335.712 57.371 335.712H56.4976C56.4986 335.696 56.507 335.682 56.507 335.666V334.029H57.347C59.0239 334.029 60.3876 332.666 60.3876 330.99V329.142C60.3886 328.845 60.1482 328.604 59.8504 328.604Z" fill="white"/>
<path d="M512.08 394.168H223.735V213.623C223.735 208.613 227.797 204.552 232.807 204.552H503.009C508.019 204.552 512.081 208.613 512.081 213.623V394.168H512.08Z" fill="#434343"/>
<path d="M368.599 212.728C367.38 212.728 366.387 211.736 366.387 210.516C366.387 209.297 367.379 208.305 368.599 208.305C369.818 208.305 370.81 209.297 370.81 210.516C370.811 211.736 369.819 212.728 368.599 212.728ZM368.599 209.383C367.973 209.383 367.464 209.892 367.464 210.517C367.464 211.143 367.973 211.652 368.599 211.652C369.223 211.652 369.732 211.143 369.732 210.517C369.732 209.892 369.223 209.383 368.599 209.383Z" fill="white"/>
<path d="M526.196 416.999H209.618C208.469 416.999 207.536 416.067 207.536 414.917V399.635C207.536 396.185 210.332 393.389 213.782 393.389H522.032C525.482 393.389 528.278 396.185 528.278 399.635V414.917C528.278 416.066 527.346 416.999 526.196 416.999Z" fill="#272727"/>
<path d="M526.447 402.169H209.368C208.356 402.169 207.536 401.348 207.536 400.337V398.294C207.536 395.259 209.997 392.799 213.031 392.799H522.783C525.818 392.799 528.278 395.259 528.278 398.294V400.338C528.278 401.349 527.457 402.169 526.447 402.169Z" fill="#09090B"/>
<path d="M386.467 400.306H349.603C347.306 400.306 345.438 398.437 345.438 396.141V391.831C345.438 391.534 345.678 391.293 345.976 391.293C346.274 391.293 346.514 391.534 346.514 391.831V396.141C346.514 397.843 347.9 399.228 349.602 399.228H386.466C388.028 399.228 389.299 397.957 389.299 396.396V391.831C389.299 391.534 389.54 391.293 389.838 391.293C390.136 391.293 390.376 391.534 390.376 391.831V396.396C390.376 398.552 388.623 400.306 386.467 400.306Z" fill="white"/>
<path d="M496.106 216.173H241.203V386.52H496.106V216.173Z" fill="white"/>
<path opacity="0.81" d="M482.96 248.65H261.224V368.507H482.96V248.65Z" fill="#DDDDDD"/>
<path d="M496.106 216.141H241.203V232.244H496.106V216.141Z" fill="#272727"/>
<path d="M471.943 226.727C470.735 226.727 469.752 225.744 469.752 224.537C469.752 223.329 470.735 222.346 471.943 222.346C473.15 222.346 474.133 223.329 474.133 224.537C474.133 225.744 473.15 226.727 471.943 226.727ZM471.943 223.423C471.329 223.423 470.83 223.922 470.83 224.536C470.83 225.149 471.329 225.648 471.943 225.648C472.556 225.648 473.055 225.149 473.055 224.536C473.055 223.922 472.556 223.423 471.943 223.423Z" fill="white"/>
<path d="M479.949 226.727C478.742 226.727 477.759 225.744 477.759 224.537C477.759 223.329 478.742 222.346 479.949 222.346C481.157 222.346 482.139 223.329 482.139 224.537C482.139 225.744 481.157 226.727 479.949 226.727ZM479.949 223.423C479.336 223.423 478.837 223.922 478.837 224.536C478.837 225.149 479.336 225.648 479.949 225.648C480.562 225.648 481.062 225.149 481.062 224.536C481.062 223.922 480.562 223.423 479.949 223.423Z" fill="white"/>
<path d="M487.238 226.727C486.03 226.727 485.048 225.744 485.048 224.537C485.048 223.329 486.03 222.346 487.238 222.346C488.445 222.346 489.428 223.329 489.428 224.537C489.428 225.744 488.445 226.727 487.238 226.727ZM487.238 223.423C486.625 223.423 486.125 223.922 486.125 224.536C486.125 225.149 486.625 225.648 487.238 225.648C487.851 225.648 488.351 225.149 488.351 224.536C488.351 223.922 487.851 223.423 487.238 223.423Z" fill="white"/>
<mask id="mask2_97_454" style="mask-type:luminance" maskUnits="userSpaceOnUse" x="239" y="231" width="257" height="156">
<path d="M495.982 231.645H239.708V386.018H495.982V231.645Z" fill="white"/>
</mask>
<g mask="url(#mask2_97_454)">
<path d="M306.42 357.988L298.74 314.923L295.42 303.817C295.42 303.817 293.975 296.97 288.838 290.975L287.622 290.012L288.072 290.152L259.382 260.816C258.535 259.968 257.103 260.204 256.576 261.282L255.72 263.026C254.96 264.575 255.14 266.421 256.185 267.794L268.575 284.077C266.249 284.974 263.534 285.089 261.173 285.599C259.238 286.016 257.275 286.809 256.059 288.373C255.099 289.609 254.71 291.19 254.482 292.738C253.862 296.965 252.697 298.673 252.547 302.921C252.415 306.689 265.804 316.061 265.804 316.061L268.499 333.758L277.102 397.669C277.169 398.175 277.248 398.676 277.337 399.173C281.672 423.42 311.116 433.481 330.008 417.675L306.42 357.988Z" fill="#E8A396"/>
<path opacity="0.32" d="M274.965 300.126C274.521 297.518 275.28 294.969 276.85 293.058C274.831 288.016 271.165 283.576 271.165 283.576C256.25 274.95 250.808 298.084 250.808 298.084C250.808 298.084 250.303 309.961 269.205 307.017C272.611 306.486 274.839 305.381 276.226 303.933C275.561 302.824 275.107 301.549 274.965 300.126Z" fill="#DF6969"/>
<path d="M255.417 285.958C255.943 286.132 256.45 286.415 256.936 286.693C256.685 286.549 256.417 286.429 256.158 286.304C253.29 284.912 259.838 288.115 262.752 289.39C263.761 289.831 264.748 290.328 265.751 290.791C266.794 291.272 267.973 291.65 268.965 292.228C270.911 293.359 269.683 295.036 268.436 295.967C266.842 297.155 264.68 297.446 262.688 297.24C260.956 297.061 259.229 296.462 257.506 296.15C255.677 295.82 253.847 295.404 252.113 294.681C251.411 294.388 250.709 294.034 250.189 293.472C248.418 291.56 250.431 288.641 251.766 287.25C252.463 286.524 253.311 285.833 254.339 285.789C254.706 285.774 255.065 285.841 255.417 285.958Z" fill="#E8A396"/>
<path d="M260.019 278.731C260.506 278.892 260.978 279.154 261.428 279.413C261.195 279.279 260.947 279.169 260.707 279.051C258.046 277.76 264.121 280.731 266.826 281.915C267.761 282.325 268.676 282.786 269.608 283.215C270.576 283.662 271.669 284.012 272.59 284.548C274.396 285.598 273.256 287.153 272.1 288.016C270.622 289.119 268.615 289.389 266.767 289.197C265.16 289.031 263.558 288.476 261.959 288.187C260.263 287.88 258.565 287.494 256.955 286.824C256.304 286.552 255.653 286.223 255.171 285.703C253.527 283.928 255.395 281.221 256.635 279.93C257.281 279.257 258.068 278.616 259.022 278.575C259.36 278.561 259.693 278.624 260.019 278.731Z" fill="#E8A396"/>
<path d="M253.479 293.601C253.978 293.752 254.456 294.009 254.915 294.261C254.679 294.13 254.426 294.023 254.18 293.91C251.47 292.659 257.658 295.54 260.418 296.677C261.373 297.07 262.305 297.518 263.253 297.932C264.24 298.363 265.36 298.689 266.295 299.214C268.128 300.245 266.89 301.912 265.659 302.857C264.086 304.063 261.996 304.419 260.088 304.288C258.427 304.173 256.787 303.652 255.141 303.409C253.393 303.151 251.648 302.812 250.004 302.171C249.339 301.911 248.676 301.591 248.195 301.065C246.555 299.272 248.592 296.374 249.925 294.98C250.619 294.253 251.459 293.554 252.449 293.476C252.801 293.447 253.145 293.5 253.479 293.601Z" fill="#E8A396"/>
<path d="M462.83 279.71C460.361 278.429 457.739 277.442 455.031 276.805C451.41 275.952 448.045 276.046 445.708 272.607C444.425 270.72 444.092 268.369 443.716 266.119C441.841 254.914 437.228 244.963 428.116 237.832C400.326 216.086 358.365 214.445 342.284 264.528C340.311 270.671 330.101 278.776 325.823 284.099C324.59 285.632 323.262 287.356 321.875 289.261C315.717 296.505 312.026 305.354 311.933 314.963C311.796 329.106 319.423 341.781 331.45 350.116C346.163 360.312 360.499 370.99 372.754 383.289C383.005 393.578 398.606 399.947 415.98 399.283C441.03 398.326 462.153 382.126 465.887 361.189C466.483 357.848 466.672 354.374 466.299 350.995C465.969 348.019 464.609 345.051 465.21 342.01C465.949 338.268 469.231 335.681 471.876 332.933C480.708 323.759 483.612 309.337 479.018 297.459C476.395 290.678 471.397 284.923 465.248 281.088C464.461 280.597 463.655 280.137 462.83 279.71Z" fill="#09090B"/>
<path d="M457.355 361.943C446.486 349.564 441.291 343.411 425.09 343.029L425.089 343.026H424.986C424.824 343.023 424.667 343.016 424.503 343.014L424.498 343.026L348.791 343.014H348.787H348.385L348.386 343.02C348.354 343.021 348.321 343.021 348.29 343.021C322.709 343.465 301.283 361.979 296.51 386.714H478.574L457.355 361.943Z" fill="#8D8D8E"/>
<path d="M428.314 283.706L426.286 283.492C425.874 284.009 425.627 284.29 425.627 284.29C425.623 283.997 425.604 283.706 425.577 283.416L425.481 283.406L425.527 283.027C424.299 273.592 411.206 265.987 408.651 258.666C407.77 256.143 407.5 253.738 407.599 251.53C400.69 265.948 384.878 274.23 369.747 270.446L362.719 268.689L361.757 276.656L360.337 276.505C354.662 275.905 349.575 280.017 348.974 285.693L348.907 286.319C348.307 291.993 352.419 297.081 358.095 297.682L359.202 297.8L358.603 302.757C357.211 314.274 362.114 325.102 370.608 331.791L371.015 350.108C371.258 361.09 380.444 369.876 391.426 369.632C402.409 369.389 411.196 360.203 410.951 349.221L410.558 331.499C416.805 326.444 421.174 319.053 422.215 310.445L422.927 304.549L426.072 304.882C431.747 305.483 436.834 301.37 437.435 295.696L437.501 295.069C438.101 289.395 433.988 284.308 428.314 283.706Z" fill="#E8A396"/>
<path opacity="0.46" d="M387.322 332.138C369.756 330.015 357.237 314.054 359.36 296.488L358.603 302.758C356.919 316.68 364.44 329.587 376.376 335.402C378.025 340.781 382.604 345.03 388.538 345.943C396.26 347.132 403.513 342.259 405.47 334.872C414.381 330.114 420.911 321.236 422.214 310.446L423.196 302.321L422.972 304.175C420.848 321.741 404.888 334.26 387.322 332.138Z" fill="#DF6969"/>
<path d="M428.094 297.672C427.948 297.672 427.804 297.612 427.698 297.498L425.029 294.596L429.43 290.521C429.649 290.319 429.989 290.332 430.192 290.551C430.394 290.769 430.38 291.111 430.161 291.313L426.547 294.657L428.491 296.768C428.692 296.987 428.678 297.328 428.46 297.53C428.354 297.624 428.224 297.672 428.094 297.672Z" fill="#DF6969"/>
<path d="M357.212 289.409C357.043 289.409 356.877 289.33 356.773 289.182C356.601 288.939 356.658 288.603 356.901 288.43L359.243 286.772L356.41 282.746C356.24 282.502 356.298 282.166 356.54 281.995C356.784 281.824 357.12 281.883 357.292 282.125L360.741 287.031L357.523 289.31C357.429 289.375 357.32 289.409 357.212 289.409Z" fill="#DF6969"/>
<path opacity="0.57" d="M391.42 321.147C391.268 321.147 391.116 321.082 391.01 320.958C390.918 320.851 388.745 318.365 385.704 319.562C385.433 319.674 385.115 319.537 385.007 319.258C384.898 318.982 385.033 318.669 385.311 318.561C389.076 317.073 391.804 320.231 391.831 320.261C392.023 320.488 391.995 320.827 391.768 321.02C391.668 321.105 391.543 321.147 391.42 321.147Z" fill="#DF6969"/>
<path d="M409.144 283.967C408.229 284.05 407.226 283.6 406.232 283.224C405.24 282.823 404.234 282.444 403.348 282.147C402.46 281.848 401.429 281.542 400.396 281.263C399.376 280.965 398.303 280.716 397.629 280.101C396.975 279.517 396.974 278.475 398.256 277.623C399.473 276.784 402.09 276.305 405.03 277.284C407.961 278.276 409.738 280.23 410.183 281.627C410.669 283.073 410.024 283.897 409.144 283.967Z" fill="#09090B"/>
<path d="M369.417 279.123C370.235 279.546 371.331 279.508 372.393 279.534C373.463 279.538 374.536 279.568 375.469 279.627C376.402 279.686 377.473 279.791 378.534 279.924C379.591 280.032 380.68 280.207 381.532 279.89C382.356 279.597 382.746 278.63 381.876 277.357C381.061 276.119 378.813 274.687 375.723 274.484C372.635 274.296 370.259 275.435 369.326 276.563C368.337 277.718 368.628 278.727 369.417 279.123Z" fill="#09090B"/>
<path d="M397.47 288.09C396.802 289.187 397.148 290.618 398.245 291.288C399.343 291.956 400.775 291.609 401.443 290.511C402.111 289.414 401.765 287.983 400.668 287.313C399.571 286.645 398.139 286.992 397.47 288.09Z" fill="#09090B"/>
<path d="M401.303 292.796C401.181 292.796 401.059 292.755 400.958 292.671C400.898 292.621 399.45 291.459 397.225 292.308C396.948 292.414 396.636 292.276 396.53 291.998C396.424 291.72 396.562 291.408 396.84 291.302C399.681 290.219 401.571 291.78 401.65 291.847C401.877 292.038 401.907 292.377 401.715 292.605C401.609 292.73 401.456 292.796 401.303 292.796Z" fill="#DF6969"/>
<path d="M372.273 285.421C371.605 286.518 371.951 287.949 373.05 288.619C374.147 289.287 375.578 288.94 376.247 287.843C376.916 286.746 376.568 285.315 375.472 284.645C374.374 283.976 372.942 284.324 372.273 285.421Z" fill="#09090B"/>
<path d="M376.306 290.202C376.184 290.202 376.061 290.16 375.961 290.077C375.888 290.016 374.28 288.73 371.817 289.671C371.54 289.778 371.228 289.639 371.122 289.361C371.016 289.082 371.154 288.772 371.432 288.665C374.514 287.488 376.568 289.18 376.653 289.253C376.88 289.444 376.909 289.783 376.718 290.011C376.612 290.136 376.459 290.202 376.306 290.202Z" fill="#DF6969"/>
<path d="M400.092 301.742C400.092 301.742 394.401 304.384 388.663 305.044C382.924 305.703 387.073 315.482 395.808 314.954C404.542 314.428 404.791 300.884 400.092 301.742Z" fill="white"/>
<path d="M389.971 299.446C389.958 299.446 389.944 299.446 389.93 299.445L385.363 299.106C384.073 299.009 382.907 298.409 382.082 297.415C381.255 296.42 380.878 295.165 381.018 293.88L381.143 292.734C381.33 291.03 382.709 289.738 384.421 289.662L385.262 289.624L386.291 282.242C386.333 281.946 386.612 281.751 386.899 281.783C387.194 281.823 387.399 282.096 387.358 282.391L386.204 290.659L384.469 290.737C383.29 290.791 382.341 291.68 382.213 292.852L382.088 293.997C381.98 294.989 382.271 295.958 382.908 296.725C383.548 297.494 384.447 297.958 385.442 298.031L390.01 298.371C390.306 298.393 390.529 298.652 390.507 298.949C390.487 299.231 390.25 299.446 389.971 299.446Z" fill="#DF6969"/>
</g>
<path d="M408.64 377.511C415.01 377.511 420.174 372.347 420.174 365.978C420.174 359.608 415.01 354.444 408.64 354.444C402.27 354.444 397.107 359.608 397.107 365.978C397.107 372.347 402.27 377.511 408.64 377.511Z" fill="#DDDDDD"/>
<path d="M415.182 363.969L412.784 364.608C412.739 364.62 412.708 364.66 412.708 364.707V363.44C412.708 362.994 412.347 362.633 411.901 362.633H404.668C404.222 362.633 403.861 362.994 403.861 363.44V368.765C403.861 369.211 404.222 369.572 404.668 369.572H411.901C412.347 369.572 412.708 369.211 412.708 368.765V367.498C412.708 367.544 412.739 367.585 412.784 367.597L415.182 368.237C415.247 368.254 415.311 368.206 415.311 368.139V364.067C415.312 364 415.248 363.951 415.182 363.969Z" fill="white"/>
<path d="M369.239 377.511C375.609 377.511 380.772 372.347 380.772 365.978C380.772 359.608 375.609 354.444 369.239 354.444C362.869 354.444 357.705 359.608 357.705 365.978C357.705 372.347 362.869 377.511 369.239 377.511Z" fill="#272727"/>
<path d="M376.288 366.603V365.838C376.288 363.026 374 360.738 371.187 360.738H367.727C364.503 360.738 361.879 363.362 361.879 366.585V366.868C361.607 367.146 361.435 367.505 361.435 367.901V368.244C361.435 368.262 361.44 368.279 361.441 368.298C361.404 368.377 361.383 368.464 361.383 368.555V369.552C361.383 369.921 361.72 370.223 362.131 370.223H366.276C366.688 370.223 367.025 369.921 367.025 369.552V368.606C367.056 368.488 367.077 368.369 367.077 368.243V367.9C367.077 367.32 366.718 366.817 366.192 366.544C366.214 365.714 366.892 365.046 367.727 365.046H371.187C371.624 365.046 371.979 365.401 371.979 365.837V366.755C371.634 367.043 371.415 367.449 371.415 367.901V368.244C371.415 368.262 371.421 368.279 371.422 368.298C371.384 368.377 371.363 368.464 371.363 368.555V369.552C371.363 369.921 371.701 370.223 372.112 370.223H376.257C376.668 370.223 377.005 369.921 377.005 369.552V368.606C377.036 368.488 377.057 368.369 377.057 368.243V367.9C377.057 367.364 376.751 366.887 376.288 366.603Z" fill="white"/>
<path d="M330.065 377.511C336.435 377.511 341.599 372.347 341.599 365.978C341.599 359.608 336.435 354.444 330.065 354.444C323.696 354.444 318.532 359.608 318.532 365.978C318.532 372.347 323.696 377.511 330.065 377.511Z" fill="#DDDDDD"/>
<path d="M330.065 368.449C331.48 368.449 332.638 367.291 332.638 365.877V362.089C332.638 360.674 331.48 359.518 330.065 359.518C328.651 359.518 327.493 360.675 327.493 362.089V365.877C327.493 367.291 328.651 368.449 330.065 368.449Z" fill="white"/>
<path d="M333.946 364.73C333.648 364.73 333.408 364.971 333.408 365.269V367.116C333.408 368.198 332.527 369.078 331.445 369.078H328.803C327.656 369.078 326.723 368.145 326.723 366.999V365.129C326.723 364.831 326.483 364.591 326.184 364.591C325.886 364.591 325.646 364.831 325.646 365.129V366.999C325.646 368.74 327.061 370.156 328.803 370.156H329.526V371.792C329.526 371.809 329.535 371.823 329.536 371.84H328.662C328.365 371.84 328.123 372.081 328.123 372.379C328.123 372.677 328.364 372.917 328.662 372.917H331.468C331.765 372.917 332.006 372.676 332.006 372.379C332.006 372.082 331.765 371.84 331.468 371.84H330.594C330.595 371.823 330.604 371.809 330.604 371.792V370.156H331.444C333.121 370.156 334.484 368.792 334.484 367.116V365.269C334.485 364.971 334.244 364.73 333.946 364.73Z" fill="white"/>
<path d="M198.419 71.2498H192.581V112.759H198.419V71.2498Z" fill="#272727"/>
<path d="M209.549 60.0067H203.712V112.759H209.549V60.0067Z" fill="#8D8D8E" stroke="#8D8D8E" stroke-miterlimit="10"/>
<path d="M232.685 60.0067H226.847V112.759H232.685V60.0067Z" fill="#8D8D8E" stroke="#8D8D8E" stroke-miterlimit="10"/>
<path opacity="0.46" d="M243.495 52.0081H237.658V112.759H243.495V52.0081Z" fill="#8D8D8E" stroke="#8D8D8E" stroke-miterlimit="10"/>
<path d="M243.495 73.087H237.658V112.759H243.495V73.087Z" fill="#272727"/>
<path d="M221.443 75.5728H215.605V112.758H221.443V75.5728Z" fill="#272727"/>
<path d="M134.115 102.005H281.392C282.008 102.005 282.507 102.504 282.507 103.12V166.185C282.507 166.8 282.009 167.299 281.392 167.299H134.115C133.5 167.299 133.001 166.8 133.001 166.185V103.12C133 102.504 133.5 102.005 134.115 102.005Z" fill="white"/>
<path opacity="0.64" d="M134.115 102.005H281.392C282.008 102.005 282.507 102.504 282.507 103.12V166.185C282.507 166.8 282.009 167.299 281.392 167.299H134.115C133.5 167.299 133.001 166.8 133.001 166.185V103.12C133 102.504 133.5 102.005 134.115 102.005Z" fill="#272727"/>
<path d="M161.108 122.231C161.808 117.79 158.776 113.622 154.334 112.921C149.893 112.221 145.724 115.253 145.024 119.694C144.323 124.136 147.356 128.304 151.797 129.005C156.239 129.705 160.407 126.673 161.108 122.231Z" fill="#272727"/>
<path d="M152.043 123.272L149.6 121.236C149.372 121.046 149.341 120.707 149.531 120.478C149.722 120.25 150.06 120.218 150.29 120.409L151.975 121.813L155.804 117.967C156.014 117.758 156.355 117.756 156.566 117.966C156.776 118.176 156.777 118.518 156.567 118.728L152.043 123.272Z" fill="white"/>
<path d="M153.066 157.718C157.562 157.718 161.207 154.073 161.207 149.577C161.207 145.081 157.562 141.436 153.066 141.436C148.57 141.436 144.925 145.081 144.925 149.577C144.925 154.073 148.57 157.718 153.066 157.718Z" fill="#272727"/>
<path d="M152.043 151.881L149.6 149.844C149.372 149.654 149.341 149.315 149.531 149.086C149.722 148.857 150.06 148.826 150.29 149.017L151.975 150.421L155.804 146.575C156.014 146.366 156.355 146.364 156.566 146.574C156.776 146.784 156.777 147.124 156.567 147.336L152.043 151.881Z" fill="white"/>
<path d="M221.487 116.163H196.43C196.133 116.163 195.892 115.923 195.892 115.625C195.892 115.327 196.133 115.086 196.43 115.086H221.487C221.784 115.086 222.026 115.327 222.026 115.625C222.025 115.923 221.784 116.163 221.487 116.163Z" fill="white"/>
<path d="M190.778 116.163H164.661C164.363 116.163 164.123 115.923 164.123 115.625C164.123 115.327 164.364 115.086 164.661 115.086H190.778C191.076 115.086 191.317 115.327 191.317 115.625C191.317 115.923 191.076 116.163 190.778 116.163Z" fill="white"/>
<path d="M221.487 122.003H206.161C205.863 122.003 205.623 121.762 205.623 121.464C205.623 121.167 205.864 120.925 206.161 120.925H221.487C221.784 120.925 222.026 121.167 222.026 121.464C222.025 121.761 221.784 122.003 221.487 122.003Z" fill="white"/>
<path d="M198.533 122.003H164.662C164.364 122.003 164.124 121.762 164.124 121.464C164.124 121.167 164.365 120.925 164.662 120.925H198.533C198.831 120.925 199.071 121.167 199.071 121.464C199.071 121.761 198.83 122.003 198.533 122.003Z" fill="white"/>
<path d="M188.428 127.841H164.085C163.788 127.841 163.546 127.6 163.546 127.302C163.546 127.004 163.787 126.763 164.085 126.763H188.428C188.725 126.763 188.966 127.003 188.966 127.302C188.966 127.6 188.725 127.841 188.428 127.841Z" fill="white"/>
<path d="M221.487 145.85H164.661C164.363 145.85 164.123 145.609 164.123 145.311C164.123 145.013 164.364 144.773 164.661 144.773H221.487C221.784 144.773 222.026 145.013 222.026 145.311C222.026 145.609 221.784 145.85 221.487 145.85Z" fill="white"/>
<path d="M221.487 151.689H164.661C164.363 151.689 164.123 151.449 164.123 151.151C164.123 150.853 164.364 150.612 164.661 150.612H221.487C221.784 150.612 222.026 150.852 222.026 151.151C222.025 151.449 221.784 151.689 221.487 151.689Z" fill="white"/>
<path d="M188.428 157.529H164.085C163.788 157.529 163.546 157.288 163.546 156.99C163.546 156.693 163.787 156.451 164.085 156.451H188.428C188.725 156.451 188.966 156.692 188.966 156.99C188.966 157.287 188.725 157.529 188.428 157.529Z" fill="white"/>
<path d="M163.996 16.1209H142.364C141.769 16.1209 141.287 15.639 141.287 15.0436C141.287 14.4492 141.77 13.9662 142.364 13.9662H163.996C164.591 13.9662 165.073 14.4492 165.073 15.0436C165.072 15.639 164.59 16.1209 163.996 16.1209Z" fill="white"/>
<path d="M178.122 22.9838H143.126C142.531 22.9838 142.049 22.5018 142.049 21.9064C142.049 21.311 142.531 20.8291 143.126 20.8291H178.122C178.718 20.8291 179.2 21.311 179.2 21.9064C179.2 22.5008 178.718 22.9838 178.122 22.9838Z" fill="white"/>
<path d="M131.014 0H222.323C227.175 0 231.109 3.45382 231.109 7.71332V37.9275V49.9752C231.109 51.2587 229.328 51.8895 228.313 50.9651L219.598 43.0228C218.823 42.316 217.753 41.9163 216.634 41.9163L131.014 41.8289C126.821 41.8289 123.422 38.8456 123.422 35.1648V6.66406C123.422 2.98436 126.821 0 131.014 0Z" fill="#272727"/>
<path d="M207.86 16.1209H168.96C168.365 16.1209 167.883 15.639 167.883 15.0436C167.883 14.4492 168.365 13.9662 168.96 13.9662H207.86C208.455 13.9662 208.937 14.4492 208.937 15.0436C208.937 15.639 208.454 16.1209 207.86 16.1209Z" fill="white"/>
<path d="M178.699 22.9609H139.799C139.204 22.9609 138.722 22.4779 138.722 21.8836C138.722 21.2881 139.205 20.8062 139.799 20.8062H178.699C179.293 20.8062 179.776 21.2881 179.776 21.8836C179.776 22.4779 179.295 22.9609 178.699 22.9609Z" fill="white"/>
<path d="M207.86 22.9838H184.623C184.029 22.9838 183.546 22.5018 183.546 21.9064C183.546 21.311 184.029 20.8291 184.623 20.8291H207.86C208.455 20.8291 208.937 21.311 208.937 21.9064C208.937 22.5008 208.454 22.9838 207.86 22.9838Z" fill="white"/>
<path d="M163.951 16.1438H140.715C140.12 16.1438 139.638 15.6619 139.638 15.0665C139.638 14.4711 140.12 13.9891 140.715 13.9891H163.952C164.548 13.9891 165.03 14.4711 165.03 15.0665C165.029 15.6619 164.547 16.1438 163.951 16.1438Z" fill="white"/>
<path d="M207.86 29.8456H170.846C170.252 29.8456 169.769 29.3637 169.769 28.7683C169.769 28.1729 170.252 27.6909 170.846 27.6909H207.86C208.455 27.6909 208.937 28.1729 208.937 28.7683C208.937 29.3627 208.454 29.8456 207.86 29.8456Z" fill="white"/>
<path d="M233.613 157.719H299.581C300.403 157.719 301.07 157.052 301.07 156.23V113.074C301.07 112.251 300.403 111.584 299.581 111.584H233.613C232.79 111.584 232.123 112.251 232.123 113.074V156.23C232.123 157.053 232.79 157.719 233.613 157.719Z" fill="#272727"/>
<path opacity="0.5" d="M233.29 117.467H299.903C300.548 117.467 301.07 116.944 301.07 116.3V112.752C301.07 112.107 300.548 111.585 299.903 111.585H233.29C232.646 111.585 232.123 112.107 232.123 112.752V116.3C232.123 116.944 232.646 117.467 233.29 117.467Z" fill="white"/>
<g opacity="0.46">
<path d="M266.597 150.193C273.702 150.193 279.462 144.433 279.462 137.327C279.462 130.222 273.702 124.461 266.597 124.461C259.491 124.461 253.731 130.222 253.731 137.327C253.731 144.433 259.491 150.193 266.597 150.193Z" fill="white"/>
</g>
<path d="M273.578 136.344L264.434 131.064C263.676 130.627 262.729 131.173 262.729 132.048V142.607C262.729 143.481 263.676 144.028 264.434 143.591L273.578 138.311C274.336 137.874 274.336 136.781 273.578 136.344Z" fill="white"/>
<path d="M289.748 114.33C289.748 114.691 289.455 114.984 289.094 114.984C288.733 114.984 288.441 114.691 288.441 114.33C288.441 113.969 288.733 113.676 289.094 113.676C289.455 113.677 289.748 113.969 289.748 114.33Z" fill="white"/>
<path d="M293.632 114.33C293.632 114.691 293.339 114.984 292.978 114.984C292.617 114.984 292.324 114.691 292.324 114.33C292.324 113.969 292.617 113.676 292.978 113.676C293.339 113.677 293.632 113.969 293.632 114.33Z" fill="white"/>
<path d="M297.53 114.33C297.53 114.691 297.237 114.984 296.876 114.984C296.515 114.984 296.223 114.691 296.223 114.33C296.223 113.969 296.515 113.676 296.876 113.676C297.237 113.677 297.53 113.969 297.53 114.33Z" fill="white"/>
<path d="M338.82 250.728H201.779C200.195 250.728 198.913 249.445 198.913 247.862V227.76C198.913 226.178 200.195 224.895 201.779 224.895H338.82C340.402 224.895 341.685 226.178 341.685 227.76V247.862C341.685 249.445 340.402 250.728 338.82 250.728Z" fill="#787878"/>
<path d="M317.723 243.177H235.909C235.31 243.177 234.826 242.692 234.826 242.093V233.662C234.826 233.064 235.311 232.58 235.909 232.58H317.723C318.322 232.58 318.807 233.065 318.807 233.662V242.093C318.807 242.692 318.322 243.177 317.723 243.177Z" fill="white"/>
<path d="M219.936 240.711C217.654 240.711 215.798 238.855 215.798 236.573C215.798 234.291 217.654 232.435 219.936 232.435C222.217 232.435 224.074 234.291 224.074 236.573C224.074 237.563 223.718 238.523 223.072 239.273C222.282 240.186 221.14 240.711 219.936 240.711ZM219.936 233.513C218.248 233.513 216.875 234.886 216.875 236.573C216.875 238.26 218.248 239.633 219.936 239.633C220.827 239.633 221.672 239.246 222.256 238.569C222.734 238.015 222.997 237.305 222.997 236.573C222.996 234.886 221.623 233.513 219.936 233.513Z" fill="white"/>
<path d="M226.656 243.322C226.519 243.322 226.38 243.269 226.275 243.164L222.348 239.236C222.137 239.025 222.137 238.684 222.348 238.474C222.558 238.263 222.899 238.263 223.109 238.474L227.037 242.402C227.247 242.612 227.247 242.954 227.037 243.164C226.932 243.27 226.794 243.322 226.656 243.322Z" fill="white"/>
<path d="M544.054 298.151H485.464C484.186 298.151 483.149 297.114 483.149 295.835V244.237C483.149 242.959 484.185 241.922 485.464 241.922H544.054C545.333 241.922 546.368 242.959 546.368 244.237V295.835C546.368 297.115 545.333 298.151 544.054 298.151Z" fill="white"/>
<path opacity="0.64" d="M544.054 298.151H485.464C484.186 298.151 483.149 297.114 483.149 295.835V244.237C483.149 242.959 484.185 241.922 485.464 241.922H544.054C545.333 241.922 546.368 242.959 546.368 244.237V295.835C546.368 297.115 545.333 298.151 544.054 298.151Z" fill="#272727"/>
<path opacity="0.83" d="M522.927 262.188C525.589 257.659 524.076 251.831 519.547 249.169C515.019 246.507 509.19 248.021 506.528 252.549C503.867 257.078 505.38 262.906 509.909 265.568C514.437 268.229 520.266 266.716 522.927 262.188Z" fill="white"/>
<path d="M517.162 255.466C517.162 256.801 516.079 257.883 514.745 257.883C513.41 257.883 512.328 256.8 512.328 255.466C512.328 254.131 513.41 253.049 514.745 253.049C516.079 253.049 517.162 254.131 517.162 255.466Z" fill="#272727"/>
<path d="M518.019 262.397H511.47C510.964 262.397 510.554 261.987 510.554 261.481C510.554 259.604 512.076 258.082 513.954 258.082H515.963C517.604 258.082 518.934 259.413 518.934 261.055V261.482C518.936 261.987 518.525 262.397 518.019 262.397Z" fill="#272727"/>
<path opacity="0.5" d="M530.623 278.262H498.896C497.457 278.262 496.289 277.095 496.289 275.655V274.201C496.289 272.761 497.456 271.593 498.896 271.593H530.623C532.063 271.593 533.231 272.76 533.231 274.201V275.655C533.231 277.095 532.063 278.262 530.623 278.262Z" fill="white"/>
<path opacity="0.5" d="M530.623 289.102H498.896C497.457 289.102 496.289 287.935 496.289 286.494V285.04C496.289 283.6 497.456 282.432 498.896 282.432H530.623C532.063 282.432 533.231 283.599 533.231 285.04V286.494C533.231 287.935 532.063 289.102 530.623 289.102Z" fill="white"/>
<path d="M537.84 250.215C537.702 250.215 537.564 250.162 537.459 250.057C537.249 249.847 537.249 249.506 537.459 249.295L541.078 245.675C541.288 245.465 541.63 245.465 541.84 245.675C542.05 245.885 542.05 246.227 541.84 246.437L538.221 250.057C538.116 250.163 537.978 250.215 537.84 250.215Z" fill="white"/>
<path d="M541.459 250.215C541.321 250.215 541.183 250.162 541.078 250.057L537.459 246.437C537.249 246.227 537.249 245.885 537.459 245.675C537.669 245.465 538.011 245.465 538.221 245.675L541.84 249.295C542.05 249.506 542.05 249.846 541.84 250.057C541.735 250.163 541.597 250.215 541.459 250.215Z" fill="white"/>
<path d="M486.545 339.532H545.508C546.331 339.532 546.998 338.864 546.998 338.042V307.631C546.998 306.809 546.331 306.142 545.508 306.142H486.545C485.722 306.142 485.055 306.809 485.055 307.631V338.042C485.056 338.865 485.722 339.532 486.545 339.532Z" fill="#272727"/>
<g opacity="0.93">
<path d="M499.587 331.853C504.542 331.242 508.064 326.729 507.453 321.774C506.842 316.818 502.329 313.296 497.374 313.908C492.418 314.519 488.896 319.031 489.507 323.987C490.119 328.942 494.631 332.464 499.587 331.853Z" fill="white"/>
</g>
<path d="M524.311 318.102H512.456C512.158 318.102 511.916 317.861 511.916 317.564C511.916 317.266 512.158 317.026 512.456 317.026H524.311C524.608 317.026 524.849 317.266 524.849 317.564C524.849 317.861 524.608 318.102 524.311 318.102Z" fill="white"/>
<path d="M537.96 318.102H527.393C527.095 318.102 526.855 317.861 526.855 317.564C526.855 317.266 527.096 317.026 527.393 317.026H537.96C538.257 317.026 538.499 317.266 538.499 317.564C538.499 317.861 538.258 318.102 537.96 318.102Z" fill="white"/>
<path d="M523.022 328.649H512.456C512.158 328.649 511.916 328.408 511.916 328.11C511.916 327.813 512.158 327.572 512.456 327.572H523.022C523.32 327.572 523.56 327.813 523.56 328.11C523.56 328.408 523.32 328.649 523.022 328.649Z" fill="white"/>
<path d="M533.022 323.079H522.456C522.158 323.079 521.918 322.838 521.918 322.54C521.918 322.243 522.159 322.002 522.456 322.002H533.022C533.32 322.002 533.56 322.243 533.56 322.54C533.562 322.838 533.32 323.079 533.022 323.079Z" fill="white"/>
<path d="M519.391 323.079H512.456C512.158 323.079 511.916 322.838 511.916 322.54C511.916 322.243 512.158 322.002 512.456 322.002H519.391C519.689 322.002 519.931 322.243 519.931 322.54C519.929 322.838 519.689 323.079 519.391 323.079Z" fill="white"/>
<path d="M530.536 328.649H526.272C525.974 328.649 525.734 328.408 525.734 328.11C525.734 327.813 525.974 327.572 526.272 327.572H530.536C530.833 327.572 531.075 327.813 531.075 328.11C531.075 328.408 530.833 328.649 530.536 328.649Z" fill="white"/>
<path d="M505.667 322.603C505.797 326.631 502.675 330.002 498.694 330.13C494.713 330.259 491.38 327.098 491.25 323.069C491.12 319.041 494.241 315.671 498.222 315.542C502.202 315.414 505.535 318.576 505.667 322.603Z" fill="#272727"/>
<path d="M498.441 323.364C498.248 323.37 498.086 323.218 498.079 323.026L497.942 318.772C497.936 318.58 498.087 318.417 498.28 318.411C498.473 318.405 498.635 318.556 498.641 318.749L498.779 323.003C498.785 323.196 498.634 323.358 498.441 323.364Z" fill="white"/>
<path d="M498.111 322.957C498.104 322.764 498.256 322.602 498.449 322.596L501.727 322.489C501.919 322.483 502.082 322.634 502.088 322.828C502.094 323.021 501.943 323.183 501.75 323.189L498.472 323.295C498.278 323.301 498.117 323.149 498.111 322.957Z" fill="white"/>
</g>
<defs>
<clipPath id="clip0_97_454">
<rect width="547" height="416.998" fill="white"/>
</clipPath>
</defs>
</svg>
